<svg width="445.500122" height="291.000000" viewBox="0 0 445.5 291" fill="none" xmlns="http://www.w3.org/2000/svg" xmlns:xlink="http://www.w3.org/1999/xlink">
	<desc>
			Created with Pixso.
	</desc>
	<defs/>
	<rect id="Frame 165" width="445.000000" height="290.000000" transform="translate(0.500000 0.500000)" fill="#FFFFFF" fill-opacity="0"/>
	<g opacity="0.500000">
		<path id="Spiral 3" d="M103.036 0.5C46.4066 0.5 0.5 15.0156 0.5 32.9209C0.5 50.8267 46.4066 65.3423 103.036 65.3423C134.772 65.3423 160.5 59.1978 160.5 51.6182C160.5 44.0381 134.772 37.8936 103.036 37.8936C46.4066 37.8936 0.5 52.4092 0.5 70.3149C0.5 88.2207 46.4066 102.736 103.036 102.736C134.772 102.736 160.5 96.5918 160.5 89.0117C160.5 81.4321 134.772 75.2871 103.036 75.2871C46.4066 75.2871 0.5 89.8921 0.5 107.907C0.5 125.923 46.4066 140.528 103.036 140.528C134.772 140.528 160.5 134.383 160.5 126.803C160.5 119.223 134.772 113.08 103.036 113.08C46.4066 113.08 0.5 127.594 0.5 145.5C0.5 163.406 46.4066 177.92 103.036 177.92C134.772 177.92 160.5 171.777 160.5 164.197C160.5 156.617 134.772 150.472 103.036 150.472C46.4066 150.472 0.5 164.988 0.5 182.894C0.5 200.8 46.4066 215.314 103.036 215.314C134.772 215.314 160.5 209.17 160.5 201.591C160.5 194.011 134.772 187.866 103.036 187.866C46.4066 187.866 0.5 202.382 0.5 220.287C0.5 238.193 46.4066 252.708 103.036 252.708C134.772 252.708 160.5 246.564 160.5 238.984C160.5 231.405 134.772 225.26 103.036 225.26C46.4066 225.26 0.5 239.864 0.5 257.879C0.5 275.895 46.4066 290.5 103.036 290.5" stroke="#A1A6B4" stroke-opacity="1.000000" stroke-width="1.000000" stroke-linecap="round"/>
	</g>
	<g opacity="0.500000">
		<path id="Dawn" d="M318.025 145.875L366.792 28.2051L318.071 145.894L408.156 55.8438L318.106 145.929L435.795 97.2075L318.125 145.975L445.5 146L318.125 146.025L435.795 194.792L318.106 146.071L408.156 236.156L318.071 146.106L366.792 263.794L318.025 146.125L318 273.5L317.975 146.125L269.208 263.794L317.929 146.106L227.844 236.156L317.894 146.071L200.205 194.792L317.875 146.025L190.5 146L317.875 145.975L200.205 97.2075L317.894 145.929L227.844 55.8438L317.929 145.894L269.208 28.2051L317.975 145.875L318 18.5L318.025 145.875Z" stroke="#A1A6B4" stroke-opacity="1.000000" stroke-width="1.000000"/>
	</g>
</svg>
